<?xml version="1.0" encoding="UTF-8"?>
<svg version="1.1" xmlns="http://www.w3.org/2000/svg" width="494" height="505">
<path d="M0 0 C1.29457123 0.05867249 1.29457123 0.05867249 2.61529541 0.11853027 C32.1059781 1.49045226 32.1059781 1.49045226 38.0625 7.125 C40.40525557 11.4996798 40.35855844 15.81498262 40.35302734 20.65966797 C40.35974457 21.50746826 40.36646179 22.35526855 40.37338257 23.22875977 C40.39234437 26.02496234 40.39628579 28.82092467 40.3984375 31.6171875 C40.4048665 33.56625466 40.41159493 35.51532085 40.41860962 37.46438599 C40.4305777 41.54805742 40.4342909 45.63164429 40.43310547 49.71533203 C40.43290226 54.93971742 40.46020818 60.16355895 40.49464989 65.38781548 C40.51692225 69.4130806 40.52094291 73.43821488 40.51988602 77.46353531 C40.52224132 79.38920085 40.53106083 81.31487003 40.54655075 83.2404747 C40.56621831 85.9378815 40.56036996 88.63411599 40.54833984 91.33154297 C40.55957886 92.1213858 40.57081787 92.91122864 40.58239746 93.7250061 C40.5196256 99.28344268 39.33540372 102.59023761 36.0625 107.125 C32.76334112 109.69554688 29.31093875 109.38201436 25.23364258 109.39624023 C24.5550116 109.40146698 23.87638062 109.40669373 23.17718506 109.41207886 C21.70673236 109.42230078 20.23624366 109.42809611 18.76575661 109.42996025 C16.43145146 109.43363401 14.09756739 109.45039044 11.76335144 109.47071838 C5.12771475 109.52601595 -1.50798488 109.55671335 -8.14379883 109.58129883 C-12.2074949 109.59725963 -16.27089471 109.62757217 -20.33443642 109.66606331 C-21.87601872 109.6776443 -23.41765422 109.68364305 -24.95928001 109.68374443 C-38.8812001 109.64057096 -38.8812001 109.64057096 -51.3125 115.3125 C-57.25129492 121.67549455 -57.39561688 128.90991794 -57.44921875 137.1875 C-57.46716995 138.21939453 -57.48512115 139.25128906 -57.50361633 140.31445312 C-57.55745456 143.58459484 -57.59153022 146.85459281 -57.625 150.125 C-57.65819642 152.35288447 -57.69268821 154.58075004 -57.72851562 156.80859375 C-57.81316554 162.24726685 -57.88162667 167.68595918 -57.9375 173.125 C-56.86088104 173.12055878 -55.78426208 173.11611755 -54.67501831 173.11154175 C-44.52276054 173.07097653 -34.37051924 173.04100638 -24.21819878 173.02137566 C-18.99894708 173.01094401 -13.77976088 172.99679601 -8.56054688 172.97412109 C-3.52255739 172.95237079 1.51536913 172.94042671 6.55340195 172.93524551 C8.47430283 172.9315537 10.39520032 172.92434452 12.31607437 172.91353989 C15.0091315 172.89899598 17.70192937 172.89702328 20.39501953 172.89794922 C21.18696213 172.89075867 21.97890472 172.88356812 22.79484558 172.87615967 C28.25389617 172.89643407 32.78722717 173.52615963 37.375 176.75 C41.36485468 182.36535104 40.00682427 189.91980814 39.171875 196.390625 C39.06659485 197.26410583 38.9613147 198.13758667 38.85284424 199.03753662 C38.62857379 200.88365077 38.39971017 202.72921211 38.16650391 204.57421875 C37.81889058 207.32443948 37.48424471 210.07596862 37.15234375 212.828125 C35.94334083 222.73357003 34.59740231 232.60961489 33.03887939 242.4664917 C32.13426656 248.27056942 31.65686502 254.0074101 31.296875 259.87109375 C30.08786204 276.65622366 30.08786204 276.65622366 25.0625 282.125 C21.40587857 284.62819006 17.62419857 284.39441768 13.35644531 284.35205078 C12.58532913 284.35234283 11.81421295 284.35263489 11.01972961 284.35293579 C8.4765794 284.35154493 5.9337239 284.33599527 3.390625 284.3203125 C1.62514404 284.3165815 -0.14033899 284.31373494 -1.90582275 284.31173706 C-6.54845922 284.30410743 -11.19097019 284.28446467 -15.83355713 284.2623291 C-20.57261457 284.24185626 -25.31169232 284.23273226 -30.05078125 284.22265625 C-39.34640925 284.20121817 -48.64194418 284.16709027 -57.9375 284.125 C-57.93473462 285.19659929 -57.93196924 286.26819859 -57.92912006 287.37227058 C-57.8625465 313.4364202 -57.81323464 339.50055881 -57.78206348 365.56477547 C-57.76658902 378.16919093 -57.74548836 390.77355025 -57.71118164 403.37792969 C-57.68129711 414.36281397 -57.66192921 425.3476576 -57.65523452 436.3325814 C-57.65132068 442.14999605 -57.64211041 447.96729438 -57.62030983 453.78467178 C-57.59995973 459.25930863 -57.59366326 464.73378115 -57.59817696 470.20845222 C-57.5973511 472.21841258 -57.59137673 474.22837838 -57.57988358 476.23830605 C-57.56496269 478.98208108 -57.568545 481.72523532 -57.57673645 484.46902466 C-57.56799793 485.2647558 -57.5592594 486.06048695 -57.55025607 486.88033116 C-57.5890121 491.6815746 -58.2859434 494.96462787 -60.9375 499.125 C-65.80710891 502.57152426 -70.33947512 502.54950691 -76.07641602 502.49731445 C-76.97634277 502.50096512 -77.87626953 502.50461578 -78.8034668 502.50837708 C-81.76630762 502.5164567 -84.72859713 502.50289492 -87.69140625 502.48828125 C-89.75593567 502.48776238 -91.82046558 502.48828113 -93.88499451 502.48979187 C-98.20652669 502.48970227 -102.52787186 502.47929582 -106.84936523 502.46118164 C-112.38653426 502.43848082 -117.92343051 502.43795427 -123.46063328 502.44469929 C-127.72171958 502.44804161 -131.98274377 502.44140441 -136.24381828 502.43157005 C-138.28554904 502.4277234 -140.3272867 502.42656762 -142.36902046 502.4281559 C-145.2221403 502.42852703 -148.07491114 502.41589317 -150.92797852 502.3996582 C-152.19130257 502.40337433 -152.19130257 502.40337433 -153.48014832 502.40716553 C-161.53618533 502.3340592 -161.53618533 502.3340592 -164.9375 500.125 C-168.69032342 494.70895106 -169.51410491 490.85298623 -169.41851807 484.34877014 C-169.42193577 483.48932672 -169.42535347 482.62988331 -169.42887473 481.74439615 C-169.43543974 478.87751171 -169.41350051 476.01157292 -169.39160156 473.14477539 C-169.39047279 471.08465599 -169.39110753 469.02453497 -169.39337158 466.9644165 C-169.39451847 461.380157 -169.37101288 455.79624169 -169.34307575 450.21206212 C-169.31805814 444.37311759 -169.3157198 438.53416503 -169.31097412 432.69517517 C-169.29854544 421.64200886 -169.26572515 410.58900094 -169.22557616 399.53590435 C-169.18085522 386.95075593 -169.15887057 374.36559992 -169.13879442 361.78039181 C-169.09699254 335.89517342 -169.02664243 310.01009559 -168.9375 284.125 C-169.77608551 284.13388245 -170.61467102 284.14276489 -171.47866821 284.1519165 C-179.39402798 284.23217211 -187.30925047 284.29302001 -195.22492409 284.33224869 C-199.29416939 284.3530949 -203.36307759 284.38135753 -207.43212891 284.42675781 C-211.36140618 284.4703226 -215.29035987 284.49415942 -219.21986008 284.50450897 C-220.71655748 284.51188138 -222.21323782 284.5262782 -223.70979691 284.54792023 C-225.81163602 284.57709757 -227.91215006 284.58095032 -230.01416016 284.57910156 C-231.20884918 284.58798401 -232.40353821 284.59686646 -233.63442993 284.60601807 C-237.67949522 284.01694504 -239.80094962 282.71321136 -242.9375 280.125 C-244.77969491 277.41788156 -245.18856209 275.311089 -245.19819641 272.07106018 C-245.20528122 271.27344269 -245.21236603 270.4758252 -245.21966553 269.65403748 C-245.21718811 268.78795364 -245.21471069 267.92186981 -245.2121582 267.02954102 C-245.21726913 266.11039917 -245.22238007 265.19125732 -245.22764587 264.2442627 C-245.24154663 261.20574432 -245.24058476 258.16745264 -245.23828125 255.12890625 C-245.24216784 253.016677 -245.24650244 250.90444853 -245.25126648 248.79222107 C-245.25872968 244.36462877 -245.25843662 239.93711621 -245.25317383 235.50952148 C-245.24737839 229.83548553 -245.26431164 224.16177591 -245.2875185 218.48779392 C-245.30224955 214.12548412 -245.3031284 209.76325304 -245.30000877 205.40092278 C-245.30052228 203.30894258 -245.30576546 201.216958 -245.31582069 199.12500191 C-245.32815573 196.19973663 -245.32141093 193.27510858 -245.30981445 190.34985352 C-245.31745819 189.48579391 -245.32510193 188.62173431 -245.33297729 187.73149109 C-245.29191388 183.04554515 -245.00505894 179.91369601 -241.9375 176.125 C-235.30431387 171.78535032 -227.4517869 172.74633372 -219.81640625 172.83203125 C-218.34667903 172.83763382 -216.87694616 172.84190079 -215.4072113 172.84489441 C-211.55856574 172.85629131 -207.71026549 172.88571318 -203.86175537 172.91900635 C-199.92676462 172.94981917 -195.99171751 172.96342359 -192.05664062 172.97851562 C-184.35010382 173.01058861 -176.64385049 173.06172146 -168.9375 173.125 C-168.93972061 172.44198822 -168.94194122 171.75897644 -168.94422913 171.05526733 C-168.96443359 164.5550964 -168.97957544 158.05493448 -168.98931217 151.554739 C-168.9944865 148.21453356 -169.00204126 144.8743742 -169.01293945 141.53417969 C-169.02520232 137.67642548 -169.03077316 133.81870778 -169.03515625 129.9609375 C-169.04031754 128.78639008 -169.04547882 127.61184265 -169.05079651 126.40170288 C-169.05156669 114.77603731 -168.47765675 103.24007522 -166.25 91.8125 C-165.99053589 90.47928711 -165.99053589 90.47928711 -165.72583008 89.11914062 C-162.90209981 75.38459515 -158.00189382 63.21828434 -150.9375 51.125 C-150.12468585 49.68767761 -149.31212173 48.25021374 -148.5 46.8125 C-147.984375 45.925625 -147.46875 45.03875 -146.9375 44.125 C-146.2775 44.125 -145.6175 44.125 -144.9375 44.125 C-144.73125 43.444375 -144.525 42.76375 -144.3125 42.0625 C-142.50854973 38.20860625 -140.0364655 35.04712236 -136.9375 32.125 C-136.2775 32.125 -135.6175 32.125 -134.9375 32.125 C-134.9375 31.465 -134.9375 30.805 -134.9375 30.125 C-133.03577511 28.47119473 -131.13794292 26.94573349 -129.125 25.4375 C-128.53114502 24.98979248 -127.93729004 24.54208496 -127.32543945 24.08081055 C-89.15264106 -4.40200907 -45.38679702 -2.13441783 0 0 Z M-57.11328125 22.16308594 C-76.78558253 22.64602319 -97.52200057 29.79260046 -112.9375 42.125 C-112.9375 42.785 -112.9375 43.445 -112.9375 44.125 C-113.66324219 44.34542969 -114.38898438 44.56585938 -115.13671875 44.79296875 C-126.18893427 50.04932229 -134.77389099 67.43070508 -138.75 78.1875 C-144.09144788 94.40901119 -146.22962478 110.09292577 -146.18132973 127.08287239 C-146.17564259 129.66050135 -146.1850408 132.23769594 -146.1985321 134.81529236 C-146.23530711 142.13168735 -146.2541317 149.44791892 -146.24291992 156.7644043 C-146.23707011 161.26764755 -146.25529961 165.77026005 -146.28880882 170.27337456 C-146.29674671 171.98016027 -146.29550769 173.687015 -146.28478432 175.39378548 C-146.27045642 177.77242287 -146.2867173 180.14906106 -146.30981445 182.52758789 C-146.29216286 183.57569389 -146.29216286 183.57569389 -146.27415466 184.64497375 C-146.34352451 188.28973636 -146.8996331 190.07215522 -149.03964233 193.05862427 C-152.61050298 195.60489832 -154.57029533 195.76085295 -158.9309082 195.78442383 C-159.61438828 195.79490753 -160.29786835 195.80539124 -161.00205994 195.81619263 C-163.24793364 195.844859 -165.49225801 195.83866201 -167.73828125 195.83203125 C-169.30057194 195.84515158 -170.86284568 195.86045685 -172.4250946 195.87785339 C-176.52687542 195.91767793 -180.62821224 195.92789211 -184.73016357 195.93188477 C-189.65712437 195.94286407 -194.58384913 195.9907181 -199.51062775 196.03237152 C-206.98645089 196.09145706 -214.46104174 196.10377651 -221.9375 196.125 C-221.9375 217.575 -221.9375 239.025 -221.9375 261.125 C-216.93078125 261.17398438 -211.9240625 261.22296875 -206.765625 261.2734375 C-203.59372978 261.30882314 -200.42186192 261.34478268 -197.25 261.3828125 C-192.21553461 261.4431197 -187.1811075 261.50130119 -182.14648438 261.546875 C-178.08744336 261.58375071 -174.02861154 261.63011681 -169.96974945 261.68306351 C-168.42124857 261.70159532 -166.87270287 261.71670779 -165.32413483 261.72834396 C-163.1549996 261.74522737 -160.9863422 261.77426669 -158.81738281 261.80615234 C-157.58272278 261.81947601 -156.34806274 261.83279968 -155.07598877 261.8465271 C-152.07497725 262.11280187 -150.334325 262.31902502 -147.9375 264.125 C-146.61729808 268.21925362 -146.7844277 272.35824562 -146.77928162 276.61639404 C-146.77187465 277.91396491 -146.77187465 277.91396491 -146.76431805 279.23774934 C-146.74893935 282.14124501 -146.74058139 285.04471856 -146.73217773 287.94824219 C-146.72259951 290.02762548 -146.71258946 292.10700682 -146.70217896 294.18638611 C-146.67511786 299.83678303 -146.65411479 305.48718831 -146.63417697 311.13761425 C-146.61232488 317.04067195 -146.58493238 322.94370384 -146.55812073 328.84674072 C-146.50818335 340.02741427 -146.46324838 351.20810214 -146.42009836 362.38880372 C-146.37073493 375.11660367 -146.31581348 387.84437771 -146.26041877 400.57215261 C-146.14658267 426.75641212 -146.04048091 452.9406954 -145.9375 479.125 C-124.4875 479.125 -103.0375 479.125 -80.9375 479.125 C-80.89991577 469.51540161 -80.89991577 469.51540161 -80.86157227 459.71166992 C-80.77826004 438.59320497 -80.68960371 417.47476498 -80.59816074 396.35633373 C-80.54282656 383.5467286 -80.48934423 370.73712068 -80.44018555 357.92749023 C-80.39734612 346.76572674 -80.35106872 335.60398378 -80.30062145 324.44225198 C-80.27401859 318.52941647 -80.24916543 312.61658504 -80.22842598 306.70372581 C-80.20886718 301.14293559 -80.18472562 295.58218443 -80.15700912 290.02142906 C-80.14763469 287.97636117 -80.13996082 285.93128469 -80.13408089 283.88620377 C-80.12582641 281.1021272 -80.11155152 278.31814564 -80.09571838 275.53410339 C-80.09474028 274.71796088 -80.09376217 273.90181836 -80.09275442 273.06094426 C-80.06894912 269.82373326 -79.96856562 267.21819687 -78.9375 264.125 C-75.36609666 261.45826202 -71.2221227 261.81840082 -66.95605469 261.80615234 C-65.75548935 261.79108391 -65.75548935 261.79108391 -64.53067017 261.77571106 C-61.89024562 261.74486801 -59.24992252 261.72784086 -56.609375 261.7109375 C-54.77662279 261.69222675 -52.94387919 261.67265341 -51.11114502 261.6522522 C-46.29106732 261.60091517 -41.47096169 261.56129783 -36.65075684 261.52410889 C-31.73064251 261.48407912 -26.81064454 261.43298208 -21.890625 261.3828125 C-12.23966506 261.2860346 -2.58863943 261.20163573 7.0625 261.125 C7.17319824 260.37516846 7.28389648 259.62533691 7.39794922 258.8527832 C7.91073173 255.38096276 8.42411343 251.90923117 8.9375 248.4375 C9.11152344 247.25865234 9.28554688 246.07980469 9.46484375 244.86523438 C10.50186736 237.85572294 11.56311994 230.85085061 12.66270447 223.8508606 C13.14372407 220.57120317 13.43395502 217.30873649 13.625 214 C13.87718569 209.79004293 14.19170133 205.59455165 14.57788086 201.39501953 C14.66847275 200.40728546 14.75906464 199.41955139 14.85240173 198.40188599 C14.95640038 197.27482742 14.95640038 197.27482742 15.0625 196.125 C13.9460762 196.12357498 12.8296524 196.12214996 11.67939758 196.12068176 C1.15871188 196.10401309 -9.36158696 196.06124338 -19.88206768 195.99290943 C-25.29081964 195.95861695 -30.69928847 195.93352591 -36.1081543 195.92944336 C-41.32796001 195.92516531 -46.54712677 195.89674317 -51.76673317 195.85156822 C-53.75818981 195.8385775 -55.74972286 195.8342911 -57.74121666 195.83884621 C-60.5308979 195.84374098 -63.31870359 195.81771018 -66.1081543 195.78442383 C-66.93174438 195.79304947 -67.75533447 195.80167511 -68.60388184 195.81056213 C-72.69686786 195.72867814 -74.5097105 195.42597699 -77.94790649 193.00698853 C-80.36510024 189.50560765 -80.5754737 187.58561475 -80.6003418 183.35375977 C-80.61070969 182.69276779 -80.62107758 182.03177582 -80.63175964 181.35075378 C-80.65878844 179.17199949 -80.64916883 176.99526729 -80.63671875 174.81640625 C-80.64263535 173.28766831 -80.64988528 171.75893501 -80.65840149 170.23020935 C-80.67027942 167.02310093 -80.66358959 163.81668632 -80.64428711 160.60961914 C-80.62156753 156.53776571 -80.64799128 152.46802288 -80.68934917 148.39637852 C-80.715193 145.23455616 -80.71227335 142.07321953 -80.70145607 138.91132927 C-80.69998725 137.41290322 -80.7074483 135.91443647 -80.72470665 134.41610909 C-80.85043347 121.37035946 -78.1628331 110.95777661 -69.75 100.625 C-59.32039377 90.00354482 -46.03159266 86.87383384 -31.53369141 86.63220215 C-30.32116699 86.62595825 -29.10864258 86.61971436 -27.859375 86.61328125 C-26.13775146 86.58832581 -26.13775146 86.58832581 -24.38134766 86.56286621 C-20.15024583 86.50563243 -15.91884035 86.47295624 -11.6875 86.4375 C-2.2 86.334375 7.2875 86.23125 17.0625 86.125 C17.0625 65.995 17.0625 45.865 17.0625 25.125 C5.72722509 23.50892583 5.72722509 23.50892583 -5.5234375 22.7109375 C-6.7913916 22.67210449 -8.0593457 22.63327148 -9.36572266 22.59326172 C-10.66815918 22.56248535 -11.9705957 22.53170898 -13.3125 22.5 C-14.70752504 22.46260724 -16.1025445 22.42500606 -17.49755859 22.38720703 C-30.70412764 22.04649912 -43.90383337 21.93186131 -57.11328125 22.16308594 Z " stroke="#ffffffb2" stroke-width="10" fill="white" transform="translate(349.9375,1.875)"/>
<path d="M0 0 C0.66 0.33 1.32 0.66 2 1 C-1.3 4.3 -4.6 7.6 -8 11 C-8.66 10.67 -9.32 10.34 -10 10 C-8.90033225 8.70450101 -7.79508199 7.41373929 -6.6875 6.125 C-6.07261719 5.40570313 -5.45773437 4.68640625 -4.82421875 3.9453125 C-3 2 -3 2 0 0 Z " fill="white" transform="translate(287,96)"/>
</svg>
